<?xml version="1.0" standalone="no"?>
<!DOCTYPE svg PUBLIC "-//W3C//DTD SVG 20010904//EN"
 "http://www.w3.org/TR/2001/REC-SVG-20010904/DTD/svg10.dtd">
<svg version="1.0" xmlns="http://www.w3.org/2000/svg"
 width="723.000000pt" height="723.000000pt" viewBox="0 0 723.000000 723.000000"
 preserveAspectRatio="xMidYMid meet">
<metadata>
Created by potrace 1.14, written by Peter Selinger 2001-2017
</metadata>
<g transform="translate(0.000000,723.000000) scale(0.100000,-0.100000)"
fill="#000000" stroke="none">
<path d="M3300 7209 c-36 -4 -94 -10 -130 -14 -267 -28 -680 -136 -935 -245
-125 -53 -158 -68 -274 -128 -289 -147 -561 -336 -789 -547 -622 -575 -1013
-1311 -1137 -2140 -24 -161 -30 -265 -30 -515 0 -354 23 -556 97 -855 40 -165
67 -253 119 -391 462 -1234 1549 -2118 2846 -2314 199 -30 280 -35 538 -35
380 0 588 25 930 111 913 231 1750 871 2223 1700 248 436 417 968 459 1449 10
115 10 556 0 660 -22 228 -80 534 -132 695 -55 169 -72 218 -113 320 -254 638
-715 1216 -1287 1613 -523 364 -1111 576 -1765 636 -118 11 -520 11 -620 0z"/>
</g>
</svg>
